<?xml version="1.0" encoding="UTF-8" standalone="no"?>
<!DOCTYPE svg PUBLIC "-//W3C//DTD SVG 1.1//EN" "http://www.w3.org/Graphics/SVG/1.1/DTD/svg11.dtd">
<svg width="100%" height="100%" viewBox="0 0 120 100" version="1.1" xmlns="http://www.w3.org/2000/svg" xmlns:xlink="http://www.w3.org/1999/xlink" xml:space="preserve" style="fill-rule:evenodd;clip-rule:evenodd;stroke-linejoin:round;stroke-miterlimit:1.41421;">
    <path d="M82.482,48.875C82.075,48.875 81.042,49.015 79.98,49.345C79.709,45.732 76.681,42.875 73,42.875C71.343,42.875 69.818,43.454 68.618,44.42C67.731,41.712 65.386,39.875 62.482,39.875C60.559,39.875 58.848,40.666 57.628,41.958L57.561,40.083C64.278,37.002 68.964,30.235 68.964,22.375C68.964,11.623 60.216,2.875 49.464,2.875C38.712,2.875 29.964,11.623 29.964,22.375C29.964,30.982 35.577,38.282 43.33,40.86L43.642,55.432C42.834,55.871 41.608,56.674 40.039,58.099C34.61,63.033 32.833,74.967 38.964,84.204C45.789,94.486 53.786,98.875 65.706,98.875C78.335,98.875 82.56,92.537 85.806,86.045C88.928,79.801 88.964,55.889 88.964,54.875C88.965,51.678 85.936,48.875 82.482,48.875ZM42.957,23.407L43.113,30.698C40.601,28.779 38.965,25.772 38.965,22.375C38.965,16.585 43.675,11.875 49.465,11.875C55.255,11.875 59.965,16.585 59.965,22.375C59.965,25.107 58.901,27.582 57.182,29.45L56.965,23.375C56.965,19.099 53.954,15.875 49.961,15.875C45.968,15.875 42.957,19.099 42.957,23.407ZM32.965,22.375C32.965,13.277 40.367,5.875 49.465,5.875C58.563,5.875 65.965,13.277 65.965,22.375C65.965,28.577 62.518,33.98 57.444,36.797L57.321,33.342C60.735,30.89 62.965,26.889 62.965,22.374C62.965,14.93 56.909,8.874 49.465,8.874C42.021,8.874 35.965,14.93 35.965,22.374C35.965,27.55 38.903,32.036 43.191,34.298L43.262,37.644C37.231,35.187 32.965,29.277 32.965,22.375ZM83.123,84.703C80.067,90.815 76.648,95.875 65.707,95.875C54.771,95.875 47.748,92.013 41.465,82.545C37.804,77.029 36.215,65.629 42.058,60.318C42.689,59.745 43.246,59.296 43.718,58.947L43.942,69.406C43.96,70.234 44.625,70.913 45.474,70.874C46.302,70.856 46.959,70.171 46.942,69.342L45.958,23.375C45.958,20.726 47.604,18.875 49.962,18.875C52.32,18.875 53.966,20.726 53.967,23.429L54.967,51.429C54.994,52.199 55.6,52.822 56.367,52.872C57.127,52.919 57.816,52.384 57.945,51.625L58.704,47.125C58.718,47.042 58.725,46.959 58.725,46.875C58.725,44.595 60.341,42.875 62.484,42.875C64.901,42.875 66.002,44.948 66.002,46.875L66.002,49.875C66.002,50.704 66.674,51.375 67.502,51.375C68.33,51.375 69.002,50.703 69.002,49.875C69.002,47.669 70.796,45.875 73.002,45.875C75.208,45.875 77.002,47.669 77.002,49.875L77.002,56.375C77.002,57.203 77.674,57.875 78.502,57.875C79.33,57.875 80.002,57.203 80.002,56.375L80.002,52.555C80.602,52.263 81.778,51.875 82.484,51.875C84.274,51.875 85.966,53.332 85.966,54.875C85.965,61.591 85.453,80.043 83.123,84.703Z" style="fill:white;fill-rule:nonzero;stroke:white;stroke-width:1px;"/>
</svg>
