<?xml version="1.0" encoding="UTF-8" standalone="no"?>
<!DOCTYPE svg PUBLIC "-//W3C//DTD SVG 1.1//EN" "http://www.w3.org/Graphics/SVG/1.1/DTD/svg11.dtd">
<svg width="100%" height="100%" viewBox="0 0 150 150" version="1.1" xmlns="http://www.w3.org/2000/svg" xmlns:xlink="http://www.w3.org/1999/xlink" xml:space="preserve" style="fill-rule:evenodd;clip-rule:evenodd;stroke-linejoin:round;stroke-miterlimit:1.41421;">
    <path d="M114.965,60.375C114.965,53.856 110.205,48.268 103.906,47.106C103.264,40.254 97.481,34.875 90.465,34.875C90.406,34.875 90.346,34.876 90.287,34.877C87.929,30.591 83.395,27.875 78.465,27.875C73.888,27.875 69.653,30.19 67.168,33.983C66.602,33.911 66.031,33.875 65.465,33.875C58.022,33.875 51.965,39.931 51.965,47.375C51.965,52.342 54.664,56.681 58.669,59.023L59.24,81.791C56.926,77.67 52.517,74.874 47.465,74.874C40.022,74.874 33.965,80.929 33.965,88.374C33.965,95.817 40.022,101.874 47.465,101.874C47.728,101.874 47.986,101.856 48.244,101.841C50.117,103.788 52.332,106.054 54.799,108.503L56.027,109.726C63.102,116.788 69.214,122.89 81.405,122.845C94.034,122.8 98.236,116.447 101.458,109.943C104.196,104.416 104.513,99.857 105.204,89.871C105.301,88.484 105.403,86.99 105.522,85.373C105.842,81.004 106.162,76.693 106.446,72.892C111.428,70.908 114.965,66.056 114.965,60.375ZM36.965,88.375C36.965,82.584 41.676,77.875 47.465,77.875C53.153,77.875 57.789,82.424 57.949,88.074L53.666,83.644C52.111,82.099 50.053,81.253 47.869,81.261C45.687,81.269 43.636,82.13 42.092,83.685C38.895,86.906 38.9,92.111 42.045,95.232C42.068,95.257 43.218,96.531 45.178,98.615C40.485,97.568 36.965,93.379 36.965,88.375ZM102.211,89.664C101.547,99.244 101.244,103.615 98.769,108.611C95.735,114.736 92.334,119.806 81.393,119.845C70.45,119.886 65.02,114.464 58.146,107.603L56.913,106.374C54.981,104.456 53.207,102.653 51.629,101.026C50.825,100.196 50.074,99.415 49.382,98.69C46.222,95.379 44.282,93.233 44.217,93.163C43.234,92.186 42.693,90.882 42.694,89.493C42.696,88.1 43.238,86.79 44.222,85.798C45.201,84.812 46.502,84.265 47.882,84.261C49.263,84.255 50.567,84.794 51.532,85.753L58.38,92.837L59.65,94.151L59.955,94.465C60.383,94.91 61.043,95.049 61.612,94.811C62.183,94.571 62.548,94.014 62.533,93.397L61.379,47.45C61.369,44.801 63.01,42.975 65.367,42.967C67.724,42.959 69.378,44.865 69.388,47.569L70.491,75.69C70.523,76.497 71.308,77.384 72.004,77.382C72.699,77.378 73.472,76.474 73.489,75.664L74.238,40.873C74.23,38.63 75.926,36.867 78.098,36.859C80.236,36.851 81.855,38.565 81.863,40.845L81.912,54.411L81.924,57.521L81.979,72.344C81.981,73.157 82.673,74.341 83.487,74.338C84.301,74.335 84.94,73.458 84.978,72.658L85.528,60.913L85.585,59.7L86.14,47.828C86.132,45.697 88.112,43.821 90.375,43.812C92.581,43.804 94.382,45.591 94.391,47.751L93.853,67.595L93.749,71.428L93.51,80.255C93.488,81.064 94.112,81.743 94.919,81.792C95.706,81.819 96.428,81.241 96.503,80.435L97.35,71.422L97.475,70.082L98.428,59.929C98.433,59.881 98.435,59.832 98.435,59.783C98.428,58.129 99.77,56.778 101.424,56.772C103.059,56.766 104.399,58.078 104.434,59.708C104.387,60.327 104.01,65.27 103.512,71.94C103.502,72.052 103.494,72.164 103.487,72.277C103.195,76.173 102.864,80.632 102.532,85.153C102.41,86.777 102.307,88.273 102.211,89.664ZM106.703,69.462C107.131,63.764 107.428,59.87 107.428,59.87C107.431,59.831 107.433,59.791 107.433,59.751C107.42,56.442 104.719,53.761 101.411,53.772C99.759,53.778 98.262,54.456 97.18,55.544L97.39,47.786C97.376,43.927 94.224,40.798 90.365,40.811C88.192,40.819 86.211,41.806 84.875,43.314L84.865,40.832C84.851,36.907 81.875,33.843 78.09,33.856C74.235,33.87 71.227,36.957 71.24,40.843L71.191,43.1C69.949,41.132 67.841,39.893 65.357,39.902C61.365,39.917 58.365,43.152 58.38,47.46L58.576,55.272C56.368,53.348 54.966,50.526 54.966,47.374C54.966,41.584 59.677,36.874 65.466,36.874C66.185,36.874 66.91,36.949 67.624,37.099C68.269,37.236 68.929,36.929 69.246,36.349C71.091,32.972 74.624,30.874 78.466,30.874C82.571,30.874 86.323,33.298 88.025,37.049C88.289,37.63 88.884,37.981 89.527,37.923C89.837,37.895 90.149,37.874 90.466,37.874C96.255,37.874 100.966,42.584 100.969,48.289C100.966,48.326 100.964,48.388 100.964,48.425C100.964,49.205 101.562,49.856 102.341,49.92C107.737,50.365 111.966,54.957 111.966,60.374C111.965,64.256 109.844,67.646 106.703,69.462Z" style="fill:white;fill-rule:nonzero;stroke:white;stroke-width:1px;"/>
</svg>
