<?xml version="1.0" encoding="UTF-8" standalone="no"?>
<!DOCTYPE svg PUBLIC "-//W3C//DTD SVG 1.1//EN" "http://www.w3.org/Graphics/SVG/1.1/DTD/svg11.dtd">
<svg width="100%" height="100%" viewBox="0 0 150 150" version="1.1" xmlns="http://www.w3.org/2000/svg" xmlns:xlink="http://www.w3.org/1999/xlink" xml:space="preserve" style="fill-rule:evenodd;clip-rule:evenodd;stroke-linejoin:round;stroke-miterlimit:1.41421;">
    <path d="M107.965,60.375C107.965,54.181 103.812,48.882 97.925,47.336C97.394,40.376 91.56,34.875 84.465,34.875C84.092,34.875 83.713,34.893 83.322,34.929C80.972,30.61 76.434,27.875 71.465,27.875C67.278,27.875 63.372,29.807 60.819,33.092C60.027,32.947 59.238,32.875 58.465,32.875C51.021,32.875 44.965,38.931 44.965,46.375C44.965,51.361 47.689,55.714 51.72,58.052L52.178,79.432C51.37,79.871 50.144,80.674 48.575,82.098C43.146,87.034 41.369,98.967 47.5,108.203C54.325,118.486 62.322,122.875 74.242,122.875C86.871,122.875 91.096,116.537 94.342,110.045C97.101,104.527 97.433,99.971 98.161,89.986C98.263,88.599 98.371,87.107 98.495,85.49C98.835,81.078 99.174,76.726 99.474,72.9C104.443,70.906 107.965,66.048 107.965,60.375ZM95.505,85.26C95.38,86.881 95.271,88.379 95.169,89.77C94.471,99.346 94.151,103.717 91.658,108.704C88.602,114.817 85.183,119.876 74.242,119.876C63.306,119.876 56.283,116.015 50,106.546C46.339,101.03 44.75,89.63 50.593,84.319C51.224,83.745 51.781,83.298 52.253,82.948L52.477,93.657C52.495,94.475 53.375,95.376 54.009,95.376C54.643,95.376 55.494,94.437 55.477,93.608L54.493,47.406C54.493,44.757 56.139,42.937 58.497,42.937C60.855,42.937 62.501,44.85 62.502,47.553L63.502,75.678C63.531,76.486 64.251,77.375 65.009,77.375C65.767,77.375 66.48,76.473 66.5,75.663L67.376,40.875C67.376,38.632 69.078,36.875 71.251,36.875C73.389,36.875 75.001,38.595 75.001,40.875L75.001,72.375C75.001,73.188 75.626,74.375 76.502,74.375C77.378,74.375 77.958,73.501 77.999,72.701L79.251,47.875C79.251,45.744 81.237,43.875 83.501,43.875C85.707,43.875 87.501,45.669 87.502,47.829L86.502,80.329C86.477,81.138 87.098,81.821 87.905,81.872C88.697,81.921 89.415,81.325 89.494,80.52L91.494,60.02C91.499,59.972 91.501,59.923 91.501,59.874C91.501,58.22 92.847,56.874 94.501,56.874C96.137,56.874 97.472,58.19 97.501,59.82C97.421,60.809 96.463,72.805 95.505,85.26ZM99.746,69.435C100.189,63.82 100.495,59.995 100.495,59.995C100.498,59.955 100.5,59.915 100.5,59.875C100.5,56.566 97.809,53.875 94.5,53.875C92.847,53.875 91.348,54.547 90.262,55.632L90.5,47.875C90.5,44.016 87.359,40.875 83.5,40.875C81.327,40.875 79.342,41.854 78,43.358L78,40.875C78,36.95 75.035,33.875 71.25,33.875C67.395,33.875 64.375,36.95 64.375,40.837L64.318,43.094C63.083,41.122 60.979,39.875 58.496,39.875C54.503,39.875 51.492,43.1 51.492,47.407L51.64,54.339C49.394,52.412 47.964,49.56 47.964,46.375C47.964,40.585 52.674,35.875 58.464,35.875C59.316,35.875 60.198,35.991 61.087,36.22C61.706,36.381 62.359,36.128 62.712,35.595C64.667,32.64 67.94,30.875 71.464,30.875C75.626,30.875 79.4,33.342 81.077,37.16C81.354,37.791 82.031,38.154 82.701,38.035C83.338,37.928 83.914,37.875 84.464,37.875C90.254,37.875 94.964,42.585 94.963,48.364C94.961,48.391 94.956,48.502 94.955,48.529C94.943,49.271 95.476,49.91 96.207,50.033C101.281,50.883 104.964,55.231 104.964,60.375C104.965,64.238 102.862,67.611 99.746,69.435Z" style="fill:white;fill-rule:nonzero;stroke:white;stroke-width:1px;"/>
</svg>
