<?xml version="1.0" encoding="UTF-8"?>
<svg width="1170px" height="600px" viewBox="0 0 1170 600" version="1.1" xmlns="http://www.w3.org/2000/svg" xmlns:xlink="http://www.w3.org/1999/xlink">
    <!-- Generator: Sketch 41.2 (35397) - http://www.bohemiancoding.com/sketch -->
    <title>mesh</title>
    <desc>Created with Sketch.</desc>
    <defs></defs>
    <g id="Web" stroke="none" stroke-width="1" fill="none" fill-rule="evenodd">
        <g id="mesh">
            <g id="iPhone-7" transform="translate(763.000000, 406.000000)" fill="#FFFFFF">
                <path d="M73.89736,0.06875 L14.89946,0.06875 C7.49926,0.06875 1.49996,6.06815 1.49996,13.46875 L1.49996,37.26875 C1.77766,37.58645 1.89996,37.91365 1.89996,38.36875 L1.89996,66.46875 C1.89996,66.92385 1.77766,67.25105 1.49996,67.56875 L1.49996,163.26875 C1.49996,170.66935 7.49926,176.66875 14.89946,176.66875 L16.39946,176.66875 C16.91746,176.38165 17.56526,176.26875 18.19946,176.26875 C18.83356,176.26875 19.48126,176.38165 19.99936,176.66875 L39.29866,176.66875 C39.54656,176.39345 39.89896,176.26875 40.29866,176.26875 L48.49826,176.26875 C48.89786,176.26875 49.25026,176.39345 49.49826,176.66875 L73.89736,176.66875 C81.29766,176.66875 87.29686,170.66935 87.29686,163.26875 L87.29686,51.36875 C87.01916,51.05105 86.89686,50.71875 86.89686,50.16875 L86.89686,37.96875 C86.89686,37.36875 87.01916,37.08645 87.29686,36.76875 L87.29686,13.46875 C87.29686,6.06815 81.29766,0.06875 73.89736,0.06875 M73.89736,0.76875 C77.28946,0.76875 80.47866,2.08975 82.87726,4.48845 C85.27586,6.88725 86.59686,10.07645 86.59686,13.46875 L86.59686,36.52655 C86.31196,36.92925 86.19686,37.35685 86.19686,37.96875 L86.19686,50.16875 C86.19686,50.76235 86.31846,51.20825 86.59686,51.60875 L86.59686,163.26875 C86.59686,166.66105 85.27586,169.85025 82.87726,172.24905 C80.47866,174.64775 77.28946,175.96875 73.89736,175.96875 L49.76776,175.96875 C49.42426,175.70605 48.99166,175.56875 48.49826,175.56875 L40.29866,175.56875 C39.80516,175.56875 39.37266,175.70605 39.02906,175.96875 L20.16836,175.96875 C19.62006,175.70655 18.94396,175.56875 18.19946,175.56875 C17.45466,175.56875 16.77866,175.70655 16.23046,175.96875 L14.89946,175.96875 C11.50746,175.96875 8.31826,174.64775 5.91966,172.24905 C3.52096,169.85025 2.19996,166.66105 2.19996,163.26875 L2.19996,67.80885 C2.47186,67.41905 2.59996,66.98675 2.59996,66.46875 L2.59996,38.36875 C2.59996,37.85075 2.47186,37.41845 2.19996,37.02865 L2.19996,13.46875 C2.19996,10.07645 3.52096,6.88725 5.91966,4.48845 C8.31826,2.08975 11.50746,0.76875 14.89946,0.76875 L73.89736,0.76875" id="Fill-28"></path>
                <path d="M73.79707,1.86875 L14.99967,1.86875 C8.53807,1.86875 3.29987,7.10695 3.29987,13.56855 L3.29987,163.16895 C3.29987,169.63055 8.53807,174.86875 14.99967,174.86875 L73.79707,174.86875 C80.25877,174.86875 85.49687,169.63055 85.49687,163.16895 L85.49687,13.56855 C85.49687,7.10695 80.25877,1.86875 73.79707,1.86875 M73.79707,2.56875 C76.73537,2.56875 79.49757,3.71285 81.57517,5.79055 C83.65277,7.86805 84.79687,10.63035 84.79687,13.56855 L84.79687,163.16895 C84.79687,166.10715 83.65277,168.86935 81.57517,170.94695 C79.49757,173.02465 76.73537,174.16875 73.79707,174.16875 L14.99967,174.16875 C12.06157,174.16875 9.29917,173.02465 7.22167,170.94695 C5.14417,168.86935 3.99987,166.10715 3.99987,163.16895 L3.99987,13.56855 C3.99987,10.63035 5.14417,7.86805 7.22167,5.79055 C9.29917,3.71285 12.06157,2.56875 14.99967,2.56875 L73.79707,2.56875" id="Fill-30"></path>
                <path d="M44.39844,158.46875 C40.80874,158.46875 37.89864,161.37885 37.89864,164.96855 L37.89864,164.96895 C37.89864,168.55865 40.80874,171.46875 44.39844,171.46875 C47.98804,171.46875 50.89824,168.55865 50.89824,164.96895 L50.89824,164.96855 C50.89824,161.37885 47.98804,158.46875 44.39844,158.46875 M44.39844,159.16875 C47.59644,159.16875 50.19824,161.77055 50.19824,164.96895 C50.19824,168.16695 47.59644,170.76875 44.39844,170.76875 C41.20044,170.76875 38.59864,168.16695 38.59864,164.96855 C38.59864,161.77055 41.20044,159.16875 44.39844,159.16875" id="Fill-32"></path>
                <path d="M44.39844,159.46875 C41.36094,159.46875 38.89864,161.93105 38.89864,164.96855 L38.89864,164.96895 C38.89864,168.00645 41.36094,170.46875 44.39844,170.46875 C47.43594,170.46875 49.89824,168.00645 49.89824,164.96895 L49.89824,164.96855 C49.89824,161.93105 47.43594,159.46875 44.39844,159.46875 M44.39844,160.16875 C47.04514,160.16875 49.19824,162.32185 49.19824,164.96895 C49.19824,167.61565 47.04514,169.76875 44.39844,169.76875 C41.75174,169.76875 39.59864,167.61565 39.59864,164.96855 C39.59864,162.32185 41.75174,160.16875 44.39844,160.16875" id="Fill-34"></path>
                <path d="M50.49824,10.56875 L38.29864,10.56875 C37.80154,10.56875 37.39864,10.97165 37.39864,11.46875 C37.39864,11.96585 37.80154,12.36875 38.29864,12.36875 L50.49824,12.36875 C50.99524,12.36875 51.39824,11.96585 51.39824,11.46875 C51.39824,10.97165 50.99524,10.56875 50.49824,10.56875 M50.49824,11.26875 C50.60854,11.26875 50.69824,11.35845 50.69824,11.46875 C50.69824,11.57905 50.60854,11.66875 50.49824,11.66875 L38.29864,11.66875 C38.18834,11.66875 38.09864,11.57905 38.09864,11.46875 C38.09864,11.35845 38.18834,11.26875 38.29864,11.26875 L50.49824,11.26875" id="Fill-36"></path>
                <path d="M31.49883,9.86875 C30.61523,9.86875 29.89893,10.58505 29.89893,11.46865 L29.89893,11.46885 C29.89893,12.35245 30.61523,13.06875 31.49883,13.06875 C32.38253,13.06875 33.09883,12.35245 33.09883,11.46885 L33.09883,11.46865 C33.09883,10.58505 32.38253,9.86875 31.49883,9.86875 M31.49883,10.56875 C31.99513,10.56875 32.39883,10.97245 32.39883,11.46885 C32.39883,11.96505 31.99513,12.36875 31.49883,12.36875 C31.00263,12.36875 30.59893,11.96505 30.59893,11.46865 C30.59893,10.97245 31.00263,10.56875 31.49883,10.56875" id="Fill-38"></path>
                <path d="M44.39844,4.86875 C43.79094,4.86875 43.29844,5.36125 43.29844,5.96875 C43.29844,6.57625 43.79094,7.06875 44.39844,7.06875 C45.00584,7.06875 45.49844,6.57625 45.49844,5.96875 C45.49844,5.36125 45.00584,4.86875 44.39844,4.86875 M44.39844,5.56875 C44.61894,5.56875 44.79844,5.74825 44.79844,5.96875 C44.79844,6.18935 44.61894,6.36875 44.39844,6.36875 C44.17794,6.36875 43.99844,6.18925 43.99844,5.96875 C43.99844,5.74815 44.17794,5.56875 44.39844,5.56875" id="Fill-40"></path>
                <path d="M2.1,65.86875 L2.1,54.46875 C2.1,54.579924 2.0108979,54.66875 1.9025,54.66875 L2.1,54.66875 L2.1,52.66875 L1.9025,52.66875 C0.907715478,52.66875 0.1,53.4739627 0.1,54.46875 L0.1,65.86875 C0.1,66.8635373 0.907715478,67.66875 1.9025,67.66875 L2,67.66875 L2,65.6948001 C2.05954905,65.7290812 2.1,65.7938428 2.1,65.86875 Z" id="Stroke-42"></path>
                <path d="M2,37.16875 L1.9025,37.16875 C0.907715478,37.16875 0.1,37.9739627 0.1,38.96875 L0.1,50.36875 C0.1,51.3635373 0.907715478,52.16875 1.9025,52.16875 L2.1,52.16875 L2.1,50.16875 L1.9025,50.16875 C2.0108979,50.16875 2.1,50.257576 2.1,50.36875 L2.1,38.96875 C2.1,39.0436572 2.05954905,39.1084188 2,39.1426999 L2,37.16875 Z" id="Stroke-44"></path>
                <path d="M2,29.56875 L2,23.16875 C2,23.3908466 1.87934388,23.5847485 1.7,23.6884873 L1.7,21.76875 L1.4,21.76875 C0.62681525,21.76875 0,22.3955653 0,23.16875 L0,29.56875 C0,30.3419347 0.62681525,30.96875 1.4,30.96875 L1.7,30.96875 L1.7,29.0490127 C1.87934388,29.1527515 2,29.3466534 2,29.56875 Z" id="Stroke-46"></path>
                <path d="M86.7,38.46875 L86.7,49.66875 C86.7,49.5938428 86.7404509,49.5290812 86.8,49.4948001 L86.8,51.46875 L86.8975,51.46875 C87.8922845,51.46875 88.7,50.6635373 88.7,49.66875 L88.7,38.46875 C88.7,37.4739627 87.8922845,36.66875 86.8975,36.66875 L86.8,36.66875 L86.8,38.6426999 C86.7404509,38.6084188 86.7,38.5436572 86.7,38.46875 Z" id="Stroke-48"></path>
                <path d="M6.90186,155.41875 C6.70856,155.41875 6.55186,155.26205 6.55186,155.06875 L6.54766,21.66875 C6.54766,21.57595 6.58456,21.48695 6.65016,21.42125 C6.71586,21.35565 6.80476,21.31875 6.89766,21.31875 L81.89916,21.31875 C82.09236,21.31875 82.24916,21.47545 82.24916,21.66875 L82.24916,155.06875 C82.24916,155.26205 82.09236,155.41875 81.89916,155.41875 L6.90186,155.41875 Z" id="Fill-50"></path>
                <path d="M81.89912,20.96875 L6.89762,20.96875 C6.71212,20.96875 6.53402,21.04245 6.40272,21.17385 C6.27152,21.30505 6.19762,21.48315 6.19762,21.66875 L6.20182,155.06875 C6.20182,155.45535 6.51522,155.76875 6.90182,155.76875 L81.89912,155.76875 C82.28572,155.76875 82.59912,155.45535 82.59912,155.06875 L82.59912,21.66875 C82.59912,21.28215 82.28572,20.96875 81.89912,20.96875 M81.89912,21.66875 L81.89912,155.06875 L6.90182,155.06875 L6.89762,21.66875 L81.89912,21.66875" id="Fill-52"></path>
            </g>
            <g id="iPhone-5SE" transform="translate(536.000000, 13.000000)" fill="#FFFFFF">
                <path d="M65.6,1.8 L13,1.8 C6.7039,1.8 1.6,6.9039 1.6,13.2 L1.6,149 C1.6,155.2961 6.7039,160.4 13,160.4 L65.6,160.4 C71.8961,160.4 77,155.2961 77,149 L77,13.2 C77,6.9039 71.8961,1.8 65.6,1.8 M65.6,2.5 C68.458,2.5 71.1451,3.613 73.166,5.634 C75.187,7.6549 76.3,10.342 76.3,13.2 L76.3,149 C76.3,151.858 75.187,154.5451 73.166,156.566 C71.1451,158.587 68.458,159.7 65.6,159.7 L13,159.7 C10.142,159.7 7.4549,158.587 5.434,156.566 C3.413,154.5451 2.3,151.858 2.3,149 L2.3,13.2 C2.3,10.342 3.413,7.6549 5.434,5.634 C7.4549,3.613 10.142,2.5 13,2.5 L65.6,2.5" id="Fill-1"></path>
                <path d="M65.6,3.2 L13,3.2 C7.4771,3.2 3,7.6771 3,13.2 L3,149 C3,154.5229 7.4771,159 13,159 L65.6,159 C71.1229,159 75.6,154.5229 75.6,149 L75.6,13.2 C75.6,7.6771 71.1229,3.2 65.6,3.2 M65.6,3.9 C70.728,3.9 74.9,8.072 74.9,13.2 L74.9,149 C74.9,154.128 70.728,158.3 65.6,158.3 L13,158.3 C7.872,158.3 3.7,154.128 3.7,149 L3.7,13.2 C3.7,8.072 7.872,3.9 13,3.9 L65.6,3.9" id="Fill-3"></path>
                <path d="M44.6,14.6 L34,14.6 C33.282,14.6 32.7,15.182 32.7,15.9 C32.7,16.618 33.282,17.2 34,17.2 L44.6,17.2 C45.318,17.2 45.9,16.618 45.9,15.9 C45.9,15.182 45.318,14.6 44.6,14.6 M44.6,15.3 C44.9309,15.3 45.2,15.5691 45.2,15.9 C45.2,16.2309 44.9309,16.5 44.6,16.5 L34,16.5 C33.6691,16.5 33.4,16.2309 33.4,15.9 C33.4,15.5691 33.6691,15.3 34,15.3 L44.6,15.3" id="Fill-5"></path>
                <path d="M29.1,14.5 C28.3268,14.5 27.7,15.1268 27.7,15.9 C27.7,16.6732 28.3268,17.3 29.1,17.3 C29.8732,17.3 30.5,16.6732 30.5,15.9 C30.5,15.1268 29.8732,14.5 29.1,14.5 M29.1,15.2 C29.4859,15.2 29.8,15.5141 29.8,15.9 C29.8,16.2859 29.4859,16.6 29.1,16.6 C28.7141,16.6 28.4,16.2859 28.4,15.9 C28.4,15.5141 28.7141,15.2 29.1,15.2" id="Fill-7"></path>
                <path d="M39.3,8.1 C38.4163,8.1 37.7,8.8163 37.7,9.7 C37.7,10.5837 38.4163,11.3 39.3,11.3 C40.1837,11.3 40.9,10.5837 40.9,9.7 C40.9,8.8163 40.1837,8.1 39.3,8.1 M39.3,8.8 C39.7963,8.8 40.2,9.2037 40.2,9.7 C40.2,10.1963 39.7963,10.6 39.3,10.6 C38.8037,10.6 38.4,10.1963 38.4,9.7 C38.4,9.2037 38.8037,8.8 39.3,8.8" id="Fill-9"></path>
                <path d="M39.3,142.23125 C35.7102,142.23125 32.8,145.14145 32.8,148.73125 C32.8,152.32105 35.7102,155.23125 39.3,155.23125 C42.8898,155.23125 45.8,152.32105 45.8,148.73125 C45.8,145.14145 42.8898,142.23125 39.3,142.23125 M39.3,142.93125 C42.4981,142.93125 45.1,145.53315 45.1,148.73125 C45.1,151.92935 42.4981,154.53125 39.3,154.53125 C36.1019,154.53125 33.5,151.92935 33.5,148.73125 C33.5,145.53315 36.1019,142.93125 39.3,142.93125" id="Fill-11"></path>
                <path d="M39.3,143.23125 C36.2624,143.23125 33.8,145.69365 33.8,148.73125 C33.8,151.76885 36.2624,154.23125 39.3,154.23125 C42.3376,154.23125 44.8,151.76885 44.8,148.73125 C44.8,145.69365 42.3376,143.23125 39.3,143.23125 M39.3,143.93125 C41.9467,143.93125 44.1,146.08455 44.1,148.73125 C44.1,151.37795 41.9467,153.53125 39.3,153.53125 C36.6533,153.53125 34.5,151.37795 34.5,148.73125 C34.5,146.08455 36.6533,143.93125 39.3,143.93125" id="Fill-13"></path>
                <path d="M52.5667,2 L52.5667,1.5604 C52.5667,1.82438331 52.3745043,2 52.1801,2 L63.9533,2 C63.7588957,2 63.5667,1.82438331 63.5667,1.5604 L63.5667,2 L65.5667,2 L65.5667,1.5604 C65.5667,0.677529351 64.8252087,0 63.9533,0 L52.1801,0 C51.3081913,0 50.5667,0.677529351 50.5667,1.5604 L50.5667,2 L52.5667,2 Z" id="Stroke-15"></path>
                <path d="M2,31.428 L2,24.572 C2,24.6915858 1.9306589,24.8233123 1.8,24.9086083 L1.8,23 L1.469,23 C0.609027475,23 0,23.7427624 0,24.572 L0,31.428 C0,32.2572376 0.609027475,33 1.469,33 L1.8,33 L1.8,31.0913917 C1.9306589,31.1766877 2,31.3084142 2,31.428 Z" id="Stroke-17"></path>
                <path d="M2,44.4995 L2,39.1005 C2,39.2779251 1.92063254,39.4309148 1.8,39.5300781 L1.8,37.65 L1.469,37.65 C0.666518097,37.65 0,38.2902108 0,39.1005 L0,44.4995 C0,45.3097892 0.666518097,45.95 1.469,45.95 L1.8,45.95 L1.8,44.0699219 C1.92063254,44.1690852 2,44.3220749 2,44.4995 Z" id="Stroke-19"></path>
                <path d="M2,57.6995 L2,52.3005 C2,52.4779251 1.92063254,52.6309148 1.8,52.7300781 L1.8,50.85 L1.469,50.85 C0.666518097,50.85 0,51.4902108 0,52.3005 L0,57.6995 C0,58.5097892 0.666518097,59.15 1.469,59.15 L1.8,59.15 L1.8,57.2699219 C1.92063254,57.3690852 2,57.5220749 2,57.6995 Z" id="Stroke-21"></path>
                <path d="M7.30146,138.35 C7.10816,138.35 6.95146,138.1933 6.95146,138 L6.94996,24.2 C6.94996,24.1072 6.98686,24.0182 7.05256,23.9525 C7.11816,23.8869 7.20716,23.85 7.29996,23.85 L71.29996,23.85 C71.39286,23.85 71.48186,23.8869 71.54746,23.9525 C71.61306,24.0182 71.64996,24.1072 71.64996,24.2 L71.64796,138 C71.64796,138.1933 71.49116,138.35 71.29796,138.35 L7.30146,138.35 Z" id="Fill-23"></path>
                <path d="M71.3,23.5 L7.3,23.5 C7.1144,23.5 6.9363,23.5737 6.805,23.7051 C6.6737,23.8363 6.6,24.0144 6.6,24.2 L6.6014,138 C6.6014,138.3866 6.9148,138.7 7.3014,138.7 L71.2979,138.7 C71.6846,138.7 71.9979,138.3866 71.9979,138 L72,24.2 C72,24.0144 71.9263,23.8363 71.795,23.7051 C71.6637,23.5737 71.4856,23.5 71.3,23.5 M71.3,24.2 L71.2979,138 L7.3014,138 L7.3,24.2 L71.3,24.2" id="Fill-25"></path>
            </g>
            <g id="iPhone-7+" transform="translate(334.000000, 376.000000)" fill="#FFFFFF">
                <path d="M86.289912,0.0804375007 L17.2623683,0.0804375007 C8.60413427,0.0804375007 1.58495321,7.09973556 1.58495321,15.7584376 L1.58495321,43.6044379 C1.90986221,43.9761469 2.05295321,44.3589709 2.05295321,44.8914379 L2.05295321,77.7684382 C2.05295321,78.3009052 1.90986221,78.6837292 1.58495321,79.0554382 L1.58495321,191.024439 C1.58495321,199.683141 8.60413427,206.702439 17.2623683,206.702439 L19.0173684,206.702439 C19.6234284,206.366532 20.3813544,206.234439 21.1233684,206.234439 C21.8652654,206.234439 22.6230744,206.366532 23.2292514,206.702439 L45.8094326,206.702439 C46.0994756,206.380338 46.5117836,206.234439 46.9794326,206.234439 L56.5729647,206.234439 C57.0404967,206.234439 57.4528047,206.380338 57.7429647,206.702439 L86.289912,206.702439 C94.948263,206.702439 101.967327,199.683141 101.967327,191.024439 L101.967327,60.101438 C101.642418,59.729729 101.499327,59.340938 101.499327,58.697438 L101.499327,44.4234379 C101.499327,43.7214379 101.642418,43.3911469 101.967327,43.0194379 L101.967327,15.7584376 C101.967327,7.09973556 94.948263,0.0804375007 86.289912,0.0804375007 M86.289912,0.899437508 C90.258669,0.899437508 93.990033,2.44500752 96.7963951,5.25148655 C99.6027571,8.05808257 101.148327,11.7894466 101.148327,15.7584376 L101.148327,42.7360639 C100.814994,43.2072229 100.680327,43.7075149 100.680327,44.4234379 L100.680327,58.697438 C100.680327,59.39195 100.822599,59.913653 101.148327,60.382238 L101.148327,191.024439 C101.148327,194.99343 99.6027571,198.724794 96.7963951,201.53139 C93.990033,204.337869 90.258669,205.883439 86.289912,205.883439 L58.0582797,205.883439 C57.6563847,205.57608 57.1502427,205.415439 56.5729647,205.415439 L46.9794326,205.415439 C46.4020376,205.415439 45.8960126,205.57608 45.4940006,205.883439 L23.4269814,205.883439 C22.7854704,205.576665 21.9944334,205.415439 21.1233684,205.415439 C20.2519524,205.415439 19.4610324,205.576665 18.8196384,205.883439 L17.2623683,205.883439 C13.2937283,205.883439 9.56236428,204.337869 6.75600225,201.53139 C3.94952323,198.724794 2.40395321,194.99343 2.40395321,191.024439 L2.40395321,79.3363552 C2.72207622,78.8802892 2.87195322,78.3744982 2.87195322,77.7684382 L2.87195322,44.8914379 C2.87195322,44.2853779 2.72207622,43.7795869 2.40395321,43.3235209 L2.40395321,15.7584376 C2.40395321,11.7894466 3.94952323,8.05808257 6.75600225,5.25148655 C9.56236428,2.44500752 13.2937283,0.899437508 17.2623683,0.899437508 L86.289912,0.899437508" id="Fill-28"></path>
                <path d="M86.1725727,2.18643752 L17.379614,2.18643752 C9.81954198,2.18643752 3.69084792,8.31513157 3.69084792,15.8752036 L3.69084792,190.907673 C3.69084792,198.467745 9.81954198,204.596439 17.379614,204.596439 L86.1725727,204.596439 C93.7327617,204.596439 99.8613388,198.467745 99.8613388,190.907673 L99.8613388,15.8752036 C99.8613388,8.31513157 93.7327617,2.18643752 86.1725727,2.18643752 M86.1725727,3.00543753 C89.6103837,3.00543753 92.8421577,4.34403454 95.2729497,6.77494356 C97.7037418,9.20561858 99.0423388,12.4375096 99.0423388,15.8752036 L99.0423388,190.907673 C99.0423388,194.345367 97.7037418,197.577141 95.2729497,200.007933 C92.8421577,202.438842 89.6103837,203.777439 86.1725727,203.777439 L17.379614,203.777439 C13.942037,203.777439 10.710029,202.438842 8.27935397,200.007933 C5.84867894,197.577141 4.50984793,194.345367 4.50984793,190.907673 L4.50984793,15.8752036 C4.50984793,12.4375096 5.84867894,9.20561858 8.27935397,6.77494356 C10.710029,4.34403454 13.942037,3.00543753 17.379614,3.00543753 L86.1725727,3.00543753" id="Fill-30"></path>
                <path d="M51.7761753,185.408439 C47.5762262,185.408439 44.1714092,188.813256 44.1714092,193.013205 L44.1714092,193.013673 C44.1714092,197.213622 47.5762262,200.618439 51.7761753,200.618439 C55.9760073,200.618439 59.3809413,197.213622 59.3809413,193.013673 L59.3809413,193.013205 C59.3809413,188.813256 55.9760073,185.408439 51.7761753,185.408439 M51.7761753,186.227439 C55.5178353,186.227439 58.5619413,189.271545 58.5619413,193.013673 C58.5619413,196.755333 55.5178353,199.799439 51.7761753,199.799439 C48.0345152,199.799439 44.9904092,196.755333 44.9904092,193.013205 C44.9904092,189.271545 48.0345152,186.227439 51.7761753,186.227439" id="Fill-32"></path>
                <path d="M51.7761753,186.578439 C48.2223002,186.578439 45.3414092,189.45933 45.3414092,193.013205 L45.3414092,193.013673 C45.3414092,196.567548 48.2223002,199.448439 51.7761753,199.448439 C55.3300503,199.448439 58.2109413,196.567548 58.2109413,193.013673 L58.2109413,193.013205 C58.2109413,189.45933 55.3300503,186.578439 51.7761753,186.578439 M51.7761753,187.397439 C54.8728143,187.397439 57.3919413,189.916566 57.3919413,193.013673 C57.3919413,196.110312 54.8728143,198.629439 51.7761753,198.629439 C48.6795362,198.629439 46.1604092,196.110312 46.1604092,193.013205 C46.1604092,189.916566 48.6795362,187.397439 51.7761753,187.397439" id="Fill-34"></path>
                <path d="M58.9129413,12.3654376 L44.6394092,12.3654376 C44.0578022,12.3654376 43.5864092,12.8368306 43.5864092,13.4184376 C43.5864092,14.0000446 44.0578022,14.4714376 44.6394092,14.4714376 L58.9129413,14.4714376 C59.4944313,14.4714376 59.9659413,14.0000446 59.9659413,13.4184376 C59.9659413,12.8368306 59.4944313,12.3654376 58.9129413,12.3654376 M58.9129413,13.1844376 C59.0419923,13.1844376 59.1469413,13.2893866 59.1469413,13.4184376 C59.1469413,13.5474886 59.0419923,13.6524376 58.9129413,13.6524376 L44.6394092,13.6524376 C44.5103582,13.6524376 44.4054092,13.5474886 44.4054092,13.4184376 C44.4054092,13.2893866 44.5103582,13.1844376 44.6394092,13.1844376 L58.9129413,13.1844376" id="Fill-36"></path>
                <path d="M36.6836314,11.5464376 C35.6498194,11.5464376 34.8117484,12.3845086 34.8117484,13.4183206 L34.8117484,13.4185546 C34.8117484,14.4523666 35.6498194,15.2904376 36.6836314,15.2904376 C37.7175604,15.2904376 38.5556314,14.4523666 38.5556314,13.4185546 L38.5556314,13.4183206 C38.5556314,12.3845086 37.7175604,11.5464376 36.6836314,11.5464376 M36.6836314,12.3654376 C37.2643024,12.3654376 37.7366314,12.8377666 37.7366314,13.4185546 C37.7366314,13.9991086 37.2643024,14.4714376 36.6836314,14.4714376 C36.1030774,14.4714376 35.6307484,13.9991086 35.6307484,13.4183206 C35.6307484,12.8377666 36.1030774,12.3654376 36.6836314,12.3654376" id="Fill-38"></path>
                <path d="M51.7761753,5.69643755 C51.0654003,5.69643755 50.4891752,6.27266256 50.4891752,6.98343756 C50.4891752,7.69421257 51.0654003,8.27043757 51.7761753,8.27043757 C52.4868333,8.27043757 53.0631753,7.69421257 53.0631753,6.98343756 C53.0631753,6.27266256 52.4868333,5.69643755 51.7761753,5.69643755 M51.7761753,6.51543756 C52.0341603,6.51543756 52.2441753,6.72545256 52.2441753,6.98343756 C52.2441753,7.24153957 52.0341603,7.45143757 51.7761753,7.45143757 C51.5181903,7.45143757 51.3081753,7.24142257 51.3081753,6.98343756 C51.3081753,6.72533556 51.5181903,6.51543756 51.7761753,6.51543756" id="Fill-40"></path>
                <path d="M2.117,63.7924381 L2.28700001,63.7924381 L2.28700001,61.7924381 L2.05592501,61.7924381 C0.985797621,61.7924381 0.117000001,62.6585436 0.117000001,63.7284381 L0.117000001,77.0664382 C0.117000001,78.1363327 0.985797621,79.0024382 2.05592501,79.0024382 L2.17000001,79.0024382 L2.17000001,77.0024382 L2.117,77.0024382 L2.117,63.7924381 Z" id="Stroke-42"></path>
                <path d="M2.117,45.6574379 L2.17000001,45.6574379 L2.17000001,43.6574379 L2.05592501,43.6574379 C0.985797621,43.6574379 0.117000001,44.5235434 0.117000001,45.5934379 L0.117000001,58.931438 C0.117000001,60.0013325 0.985797621,60.867438 2.05592501,60.867438 L2.28700001,60.867438 L2.28700001,58.867438 L2.117,58.867438 L2.117,45.6574379 Z" id="Stroke-44"></path>
                <path d="M2,34.5954378 L2,27.1074377 C2,27.2667724 1.92996631,27.4097392 1.81900001,27.5072369 L1.81900001,25.6394377 L1.468,25.6394377 C0.657262252,25.6394377 0,26.2967 0,27.1074377 L0,34.5954378 C0,35.4061756 0.657262252,36.0634378 1.468,36.0634378 L1.81900001,36.0634378 L1.81900001,34.1956386 C1.92996631,34.2931364 2,34.4361031 2,34.5954378 Z" id="Stroke-46"></path>
                <path d="M101.439001,58.048438 L101.386001,58.048438 L101.386001,60.048438 L101.500076,60.048438 C102.570203,60.048438 103.439001,59.1823325 103.439001,58.112438 L103.439001,45.0084379 C103.439001,43.9385434 102.570203,43.0724379 101.500076,43.0724379 L101.386001,43.0724379 L101.386001,45.0724379 L101.439001,45.0724379 L101.439001,58.048438 Z" id="Stroke-48"></path>
                <path d="M7.90517626,181.839939 C7.67901526,181.839939 7.49567626,181.6566 7.49567626,181.430439 L7.49076226,25.3524377 C7.49076226,25.2438617 7.53393526,25.1397317 7.61068726,25.0628627 C7.68755626,24.9861107 7.79156926,24.9429377 7.90026226,24.9429377 L95.6520181,24.9429377 C95.8780621,24.9429377 96.0615181,25.1262767 96.0615181,25.3524377 L96.0615181,181.430439 C96.0615181,181.6566 95.8780621,181.839939 95.6520181,181.839939 L7.90517626,181.839939 Z" id="Fill-50"></path>
                <path d="M95.6519713,24.5334377 L7.90021546,24.5334377 C7.68318046,24.5334377 7.47480346,24.6196667 7.32118246,24.7734047 C7.16767846,24.9269087 7.08121545,25.1352857 7.08121545,25.3524377 L7.08612945,181.430439 C7.08612945,181.882761 7.45280746,182.249439 7.90512946,182.249439 L95.6519713,182.249439 C96.1042933,182.249439 96.4709713,181.882761 96.4709713,181.430439 L96.4709713,25.3524377 C96.4709713,24.9001157 96.1042933,24.5334377 95.6519713,24.5334377 M95.6519713,25.3524377 L95.6519713,181.430439 L7.90512946,181.430439 L7.90021546,25.3524377 L95.6519713,25.3524377" id="Fill-52"></path>
            </g>
            <g id="iPad-Pro-9.7" transform="translate(68.000000, 90.000000)" fill="#FFFFFF">
                <path d="M168.8,0.06875 L8.4,0.06875 C3.7608,0.06875 0,3.82955 0,8.46875 L0,242.66875 C0,247.30795 3.7608,251.06875 8.4,251.06875 L168.8,251.06875 C173.4393,251.06875 177.2,247.30795 177.2,242.66875 L177.2,8.46875 C177.2,3.82955 173.4393,0.06875 168.8,0.06875 M168.8,0.76875 C173.0458,0.76875 176.5,4.22295 176.5,8.46875 L176.5,242.66875 C176.5,246.91455 173.0458,250.36875 168.8,250.36875 L8.4,250.36875 C4.1542,250.36875 0.7,246.91455 0.7,242.66875 L0.7,8.46875 C0.7,4.22295 4.1542,0.76875 8.4,0.76875 L168.8,0.76875" id="Fill-55"></path>
                <path d="M168.6,1.26875 L8.6,1.26875 C4.5131,1.26875 1.2,4.58185 1.2,8.66875 L1.2,242.46875 C1.2,246.55565 4.5131,249.86875 8.6,249.86875 L168.6,249.86875 C172.6869,249.86875 176,246.55565 176,242.46875 L176,8.66875 C176,4.58185 172.6869,1.26875 168.6,1.26875 M168.6,1.96875 C172.2944,1.96875 175.3,4.97435 175.3,8.66875 L175.3,242.46875 C175.3,246.16315 172.2944,249.16875 168.6,249.16875 L8.6,249.16875 C4.9056,249.16875 1.9,246.16315 1.9,242.46875 L1.9,8.66875 C1.9,4.97435 4.9056,1.96875 8.6,1.96875 L168.6,1.96875" id="Fill-57"></path>
                <path d="M11.80693,228.3104 C11.61363,228.3104 11.45693,228.1537 11.45693,227.9604 L11.44843,23.1604 C11.44843,23.0676 11.48533,22.9786 11.55093,22.9129 C11.61663,22.8473 11.70563,22.8104 11.79843,22.8104 L165.39843,22.8104 C165.59173,22.8104 165.74843,22.9671 165.74843,23.1604 L165.74843,227.9604 C165.74843,228.1537 165.59173,228.3104 165.39843,228.3104 L11.80693,228.3104 Z" id="Fill-59"></path>
                <path d="M165.39844,22.46045 L11.79844,22.46045 C11.61274,22.46045 11.43464,22.53415 11.30344,22.66545 C11.17214,22.79675 11.09844,22.97485 11.09844,23.16045 L11.10694,227.96045 C11.10694,228.34705 11.42034,228.66045 11.80694,228.66045 L165.39844,228.66045 C165.78504,228.66045 166.09844,228.34705 166.09844,227.96045 L166.09844,23.16045 C166.09844,22.77385 165.78504,22.46045 165.39844,22.46045 M165.39844,23.16045 L165.39844,227.96045 L11.80694,227.96045 L11.79844,23.16045 L165.39844,23.16045" id="Fill-61"></path>
                <path d="M88.6,234.76875 L88.6,234.76875 C85.5072,234.76875 83,237.27595 83,240.36875 C83,243.46155 85.5072,245.96875 88.6,245.96875 C91.6928,245.96875 94.2,243.46155 94.2,240.36875 C94.2,237.27595 91.6928,234.76875 88.6,234.76875 M88.6,235.46875 C91.3019,235.46875 93.5,237.66685 93.5,240.36875 C93.5,243.07065 91.3019,245.26875 88.6,245.26875 C85.8981,245.26875 83.7,243.07065 83.7,240.36875 C83.7,237.66685 85.8981,235.46875 88.6,235.46875" id="Fill-63"></path>
                <path d="M88.60049,235.66875 L88.59949,235.66875 C86.00409,235.66875 83.89999,237.77285 83.89999,240.36835 L83.89999,240.36915 C83.89999,242.96465 86.00409,245.06875 88.59949,245.06875 L88.60049,245.06875 C91.19589,245.06875 93.29999,242.96465 93.29999,240.36915 L93.29999,240.36835 C93.29999,237.77285 91.19589,235.66875 88.60049,235.66875 M88.60049,236.36875 C90.80589,236.36875 92.59999,238.16295 92.59999,240.36915 C92.59999,242.57455 90.80589,244.36875 88.59949,244.36875 C86.39419,244.36875 84.59999,242.57455 84.59999,240.36835 C84.59999,238.16295 86.39419,236.36875 88.59949,236.36875 L88.60049,236.36875" id="Fill-65"></path>
                <path d="M88.6,10.76875 C87.8268,10.76875 87.2,11.39555 87.2,12.16875 C87.2,12.94195 87.8268,13.56875 88.6,13.56875 C89.3732,13.56875 90,12.94195 90,12.16875 C90,11.39555 89.3732,10.76875 88.6,10.76875 M88.6,11.46875 C88.9859,11.46875 89.3,11.78275 89.3,12.16875 C89.3,12.55475 88.9859,12.86875 88.6,12.86875 C88.2141,12.86875 87.9,12.55475 87.9,12.16875 C87.9,11.78275 88.2141,11.46875 88.6,11.46875" id="Fill-67"></path>
            </g>
            <g id="iPad-Pro-12.1" transform="translate(903.000000, 56.000000)" fill="#FFFFFF">
                <path d="M220.0668,0.06875 L8.4665,0.06875 C3.8273,0.06875 0.0667,3.82945 0.0667,8.46865 L0.0667,311.06885 C0.0667,315.70805 3.8273,319.46875 8.4665,319.46875 L220.0668,319.46875 C224.7059,319.46875 228.4666,315.70805 228.4666,311.06885 L228.4666,8.46865 C228.4666,3.82945 224.7059,0.06875 220.0668,0.06875 M220.0668,0.76875 C224.3125,0.76875 227.7666,4.22295 227.7666,8.46865 L227.7666,311.06885 C227.7666,315.31455 224.3125,318.76875 220.0668,318.76875 L8.4665,318.76875 C4.2208,318.76875 0.7667,315.31455 0.7667,311.06885 L0.7667,8.46865 C0.7667,4.22295 4.2208,0.76875 8.4665,0.76875 L220.0668,0.76875" id="Fill-70"></path>
                <path d="M219.8668,1.26875 L8.6665,1.26875 C4.5797,1.26875 1.2666,4.58175 1.2666,8.66865 L1.2666,310.86885 C1.2666,314.95575 4.5797,318.26875 8.6665,318.26875 L219.8668,318.26875 C223.9537,318.26875 227.2667,314.95575 227.2667,310.86885 L227.2667,8.66865 C227.2667,4.58175 223.9537,1.26875 219.8668,1.26875 M219.8668,1.96875 C223.5611,1.96875 226.5667,4.97435 226.5667,8.66865 L226.5667,310.86885 C226.5667,314.56315 223.5611,317.56875 219.8668,317.56875 L8.6665,317.56875 C4.9722,317.56875 1.9666,314.56315 1.9666,310.86885 L1.9666,8.66865 C1.9666,4.97435 4.9722,1.96875 8.6665,1.96875 L219.8668,1.96875" id="Fill-72"></path>
                <path d="M114.26934,303.1687 L114.26934,303.1687 C111.17664,303.1687 108.66954,305.6758 108.66954,308.7685 L108.66954,308.7689 C108.66954,311.8616 111.17664,314.3687 114.26934,314.3687 C117.36204,314.3687 119.86914,311.8616 119.86914,308.7689 L119.86914,308.7685 C119.86914,305.6758 117.36204,303.1687 114.26934,303.1687 M114.26934,303.8687 C116.97114,303.8687 119.16914,306.0667 119.16914,308.7689 C119.16914,311.4707 116.97114,313.6687 114.26934,313.6687 C111.56754,313.6687 109.36954,311.4707 109.36954,308.7685 C109.36954,306.0667 111.56754,303.8687 114.26934,303.8687" id="Fill-74"></path>
                <path d="M114.26973,304.0687 L114.26893,304.0687 C111.67353,304.0687 109.56953,306.1727 109.56953,308.7682 L109.56953,308.7692 C109.56953,311.3647 111.67353,313.4687 114.26893,313.4687 L114.26973,313.4687 C116.86513,313.4687 118.96913,311.3647 118.96913,308.7692 L118.96913,308.7682 C118.96913,306.1727 116.86513,304.0687 114.26973,304.0687 M114.26973,304.7687 C116.47503,304.7687 118.26913,306.5628 118.26913,308.7692 C118.26913,310.9746 116.47503,312.7687 114.26893,312.7687 C112.06363,312.7687 110.26953,310.9746 110.26953,308.7682 C110.26953,306.5628 112.06363,304.7687 114.26893,304.7687 L114.26973,304.7687" id="Fill-76"></path>
                <path d="M114.26934,10.76045 L114.26934,10.76045 C113.49624,10.76045 112.86944,11.38725 112.86944,12.16045 L112.86944,12.16055 C112.86944,12.93365 113.49624,13.56045 114.26934,13.56045 C115.04254,13.56045 115.66934,12.93365 115.66934,12.16055 L115.66934,12.16045 C115.66934,11.38725 115.04254,10.76045 114.26934,10.76045 M114.26934,11.46045 C114.65524,11.46045 114.96934,11.77455 114.96934,12.16055 C114.96934,12.54645 114.65524,12.86045 114.26934,12.86045 C113.88344,12.86045 113.56944,12.54645 113.56944,12.16045 C113.56944,11.77445 113.88344,11.46045 114.26934,11.46045" id="Fill-78"></path>
                <path d="M11.87314,296.7103 C11.67984,296.7103 11.52314,296.5536 11.52314,296.3603 L11.51464,23.1605 C11.51464,23.0677 11.55144,22.9787 11.61714,22.913 C11.68284,22.8474 11.77174,22.8105 11.86464,22.8105 L216.66554,22.8105 C216.85874,22.8105 217.01554,22.9672 217.01554,23.1605 L217.01554,296.3603 C217.01554,296.5536 216.85874,296.7103 216.66554,296.7103 L11.87314,296.7103 Z" id="Fill-80"></path>
                <path d="M216.66553,21.46055 L11.86463,21.46055 C11.67903,21.46055 11.50093,21.53425 11.36963,21.66555 C11.23843,21.79685 11.16463,21.97495 11.16463,22.16055 L11.17313,295.36035 C11.17313,295.74695 11.48653,296.06035 11.87313,296.06035 L216.66553,296.06035 C217.05213,296.06035 217.36553,295.74695 217.36553,295.36035 L217.36553,22.16055 C217.36553,21.77395 217.05213,21.46055 216.66553,21.46055 M216.66553,22.16055 L216.66553,295.36035 L11.87313,295.36035 L11.86463,22.16055 L216.66553,22.16055" id="Fill-82"></path>
            </g>
            <path d="M455.5,462.5 L891,268" id="Line" stroke="#FFFFFF" stroke-width="4" stroke-linecap="round"></path>
            <path d="M435.5,351.5 L537,183" id="Line" stroke="#FFFFFF" stroke-width="4" stroke-linecap="round"></path>
            <path d="M452,500 L745.584763,500" id="Line" stroke="#FFFFFF" stroke-width="4" stroke-linecap="round"></path>
            <path d="M321,500 L158,356" id="Line" stroke="#FFFFFF" stroke-width="4" stroke-linecap="round"></path>
            <path d="M746.503906,459.757812 L265,258" id="Line" stroke="#FFFFFF" stroke-width="4" stroke-linecap="round"></path>
            <path d="M866,500 L1017,386" id="Line" stroke="#FFFFFF" stroke-width="4" stroke-linecap="round"></path>
            <path d="M760.5,389.5 L617,181" id="Line" stroke="#FFFFFF" stroke-width="4" stroke-linecap="round"></path>
            <path d="M890,216.5 L265,216.5" id="Line" stroke="#FFFFFF" stroke-width="4" stroke-linecap="round"></path>
            <path d="M891,144 L629,86" id="Line" stroke="#FFFFFF" stroke-width="4" stroke-linecap="round"></path>
            <path d="M264,157 L526,85" id="Line" stroke="#FFFFFF" stroke-width="4" stroke-linecap="round"></path>
        </g>
    </g>
</svg>