<?xml version="1.0" encoding="UTF-8" standalone="no"?>
<!DOCTYPE svg PUBLIC "-//W3C//DTD SVG 1.1//EN" "http://www.w3.org/Graphics/SVG/1.1/DTD/svg11.dtd">
<svg width="100%" height="100%" viewBox="0 0 120 100" version="1.1" xmlns="http://www.w3.org/2000/svg" xmlns:xlink="http://www.w3.org/1999/xlink" xml:space="preserve" style="fill-rule:evenodd;clip-rule:evenodd;stroke-linejoin:round;stroke-miterlimit:1.41421;">
    <g>
        <path d="M69.359,23.143C69.543,23.296 69.77,23.375 70,23.375C70.144,23.375 70.289,23.344 70.424,23.281C70.775,23.116 71,22.763 71,22.375L71,21L75,21L75,25L74,25C73.612,25 73.259,25.412 73.095,25.763C72.93,26.115 72.984,26.623 73.232,26.921L75.732,29.968C75.922,30.196 76.204,30.351 76.501,30.351C76.798,30.351 77.079,30.231 77.27,30.003L79.77,27.009C80.018,26.711 80.072,26.112 79.907,25.76C79.741,25.409 79.388,25 79,25L78,25L78,21L82,21L82,22.375C82,22.763 82.225,23.116 82.576,23.281C82.711,23.344 82.855,23.375 83,23.375C83.229,23.375 83.457,23.296 83.641,23.143L86.641,20.643C86.868,20.453 87,20.171 87,19.875C87,19.579 86.868,19.297 86.641,19.107L83.641,16.607C83.343,16.359 82.927,16.306 82.577,16.469C82.225,16.633 82,16.986 82,17.375L82,18L78,18L78,14L79,14C79.388,14 79.741,13.963 79.905,13.611C80.07,13.259 80.016,12.938 79.768,12.64L77.268,9.687C76.887,9.231 76.112,9.254 75.731,9.71L73.231,12.722C72.983,13.02 72.929,13.254 73.094,13.605C73.259,13.957 73.612,14 74,14L75,14L75,18L71,18L71,17.375C71,16.987 70.775,16.634 70.424,16.469C70.076,16.306 69.659,16.358 69.36,16.607L66.36,19.107C66.132,19.296 66,19.578 66,19.875C66,20.172 66.132,20.453 66.359,20.643L69.359,23.143Z" style="fill:white;fill-rule:nonzero;stroke:white;stroke-width:1px;"/>
        <path d="M81.482,45.875C81.075,45.875 80.042,46.015 78.98,46.345C78.709,42.732 75.681,39.875 72,39.875C70.343,39.875 68.818,40.454 67.618,41.42C66.731,38.712 64.386,36.875 61.482,36.875C59.559,36.875 57.848,37.666 56.628,38.958L56.32,30.343C59.734,27.891 61.964,23.89 61.964,19.375C61.964,11.931 55.908,5.875 48.464,5.875C41.02,5.875 34.964,11.931 34.964,19.375C34.964,24.551 37.902,29.037 42.19,31.299L42.642,52.432C41.834,52.871 40.608,53.674 39.039,55.099C33.61,60.033 31.833,71.967 37.964,81.204C44.789,91.486 52.786,95.875 64.706,95.875C77.335,95.875 81.56,89.537 84.806,83.045C87.928,76.801 87.964,52.889 87.964,51.875C87.965,48.678 84.936,45.875 81.482,45.875ZM82.123,81.703C79.067,87.815 75.648,92.875 64.707,92.875C53.771,92.875 46.748,89.013 40.465,79.545C36.804,74.029 35.215,62.629 41.058,57.318C41.689,56.745 42.246,56.296 42.718,55.947L42.942,66.406C42.96,67.234 43.611,67.913 44.474,67.874C45.302,67.856 45.959,67.171 45.942,66.342L44.958,20.375C44.958,17.726 46.604,15.875 48.962,15.875C51.32,15.875 52.966,17.726 52.967,20.429L53.967,48.429C53.994,49.198 54.6,49.822 55.367,49.872C56.126,49.919 56.816,49.384 56.945,48.625L57.704,44.125C57.718,44.042 57.725,43.959 57.725,43.875C57.725,41.595 59.341,39.875 61.484,39.875C63.901,39.875 65.002,41.948 65.002,43.875L65.002,46.875C65.002,47.704 65.674,48.375 66.502,48.375C67.33,48.375 68.002,47.704 68.002,46.875C68.002,44.669 69.796,42.875 72.002,42.875C74.208,42.875 76.002,44.669 76.002,46.875L76.002,53.375C76.002,54.203 76.674,54.875 77.502,54.875C78.33,54.875 79.002,54.203 79.002,53.375L79.002,49.555C79.602,49.263 80.778,48.874 81.484,48.874C83.274,48.874 84.966,50.332 84.966,51.874C84.965,58.591 84.453,77.043 82.123,81.703Z" style="fill:white;fill-rule:nonzero;stroke:white;stroke-width:1px;"/>
    </g>
</svg>
