<?xml version="1.0" encoding="UTF-8" standalone="no"?>
<!DOCTYPE svg PUBLIC "-//W3C//DTD SVG 1.1//EN" "http://www.w3.org/Graphics/SVG/1.1/DTD/svg11.dtd">
<svg width="100%" height="100%" viewBox="0 0 120 120" version="1.1" xmlns="http://www.w3.org/2000/svg" xmlns:xlink="http://www.w3.org/1999/xlink" xml:space="preserve" style="fill-rule:evenodd;clip-rule:evenodd;stroke-linejoin:round;stroke-miterlimit:1.41421;">
    <path d="M81.5,58.875C81.002,58.875 80.367,58.979 79.723,59.174L80.156,45.084C84.219,42.756 86.966,38.384 86.966,33.375C86.966,25.931 80.91,19.875 73.466,19.875C73.406,19.875 73.348,19.875 73.288,19.876C70.93,15.591 66.396,12.875 61.466,12.875C56.889,12.875 52.654,15.19 50.169,18.983C49.603,18.911 49.033,18.875 48.466,18.875C41.022,18.875 34.966,24.931 34.966,32.375C34.966,37.359 37.685,41.713 41.714,44.049L42.174,65.431C41.367,65.869 40.147,66.671 38.575,68.099C33.146,73.033 31.37,84.967 37.501,94.203C44.326,104.486 52.323,108.875 64.243,108.875C76.872,108.875 81.097,102.537 84.343,96.045C87.465,89.801 87.501,65.889 87.501,64.875C87.5,61.566 84.809,58.875 81.5,58.875ZM37.965,32.375C37.965,26.585 42.675,21.875 48.465,21.875C49.185,21.875 49.91,21.95 50.622,22.099C51.27,22.234 51.928,21.929 52.245,21.35C54.09,17.973 57.623,15.875 61.465,15.875C65.569,15.875 69.321,18.298 71.023,22.049C71.287,22.631 71.901,22.984 72.523,22.924C72.834,22.896 73.147,22.876 73.465,22.876C79.255,22.876 83.965,27.586 83.965,33.376C83.965,36.567 82.527,39.422 80.271,41.347L80.5,33.876C80.5,30.016 77.359,26.876 73.5,26.876C71.327,26.876 69.342,27.855 68,29.36L68,26.876C68,22.951 65.035,19.876 61.25,19.876C57.395,19.876 54.375,22.951 54.376,26.835L54.314,29.132C53.085,27.139 50.974,25.876 48.481,25.876C44.493,25.876 41.485,29.1 41.485,33.408L41.633,40.324C39.393,38.398 37.965,35.554 37.965,32.375ZM81.658,94.703C78.602,100.816 75.183,105.875 64.242,105.875C53.306,105.875 46.283,102.014 40,92.545C36.339,87.029 34.749,75.629 40.592,70.318C41.222,69.746 41.777,69.298 42.248,68.949L42.473,79.406C42.491,80.234 43.156,80.851 44.005,80.875C44.833,80.857 45.49,80.17 45.473,79.342L44.485,33.375C44.485,30.726 46.129,28.875 48.481,28.875C51.221,28.875 52.469,31.208 52.47,33.427L53.439,61.427C53.467,62.238 54.14,62.894 54.944,62.876C55.755,62.872 56.416,62.227 56.437,61.416L56.942,42.85L57.059,38.528L57.375,26.876C57.375,24.633 59.077,22.876 61.25,22.876C63.388,22.876 65,24.596 65,26.876L65,58.376C65,59.189 65.396,60.376 66.462,60.376C67.528,60.376 67.969,59.502 68.01,58.703L68.657,45.977L68.713,44.881L69.273,33.876C69.273,31.745 71.282,29.876 73.545,29.876C75.751,29.876 77.591,31.67 77.592,33.83L77.331,43.129L77.291,44.584L76.682,66.33C76.657,67.157 77.124,67.849 77.951,67.875C78.811,67.889 79.471,67.256 79.5,66.43C79.512,66.094 79.601,63.543 79.626,62.457C80.057,62.201 80.901,61.877 81.501,61.877C83.155,61.877 84.501,63.223 84.501,64.877C84.5,71.59 83.989,90.041 81.658,94.703Z" style="fill:white;fill-rule:nonzero;stroke:white;stroke-width:1px;"/>
</svg>
