<?xml version="1.0" encoding="UTF-8" standalone="no"?>
<!DOCTYPE svg PUBLIC "-//W3C//DTD SVG 1.1//EN" "http://www.w3.org/Graphics/SVG/1.1/DTD/svg11.dtd">
<svg width="100%" height="100%" viewBox="0 0 120 120" version="1.1" xmlns="http://www.w3.org/2000/svg" xmlns:xlink="http://www.w3.org/1999/xlink" xml:space="preserve" style="fill-rule:evenodd;clip-rule:evenodd;stroke-linejoin:round;stroke-miterlimit:1.41421;">
    <path d="M81.086,58.875C80.681,58.875 79.707,59.015 78.65,59.344C78.377,55.731 75.461,52.875 71.78,52.875C70.294,52.875 69,53.341 68,54.133L68,38.167C72.148,35.864 74.965,31.447 74.965,26.375C74.965,18.931 68.908,12.875 61.465,12.875C56.495,12.875 51.957,15.609 49.608,19.929C49.217,19.893 48.838,19.875 48.465,19.875C41.022,19.875 34.965,25.931 34.965,33.375C34.965,38.371 37.696,42.733 41.742,45.064L42.178,65.432C41.37,65.871 40.144,66.674 38.575,68.098C33.146,73.034 31.369,84.967 37.5,94.203C44.325,104.486 52.322,108.875 64.242,108.875C76.871,108.875 81.11,102.537 84.355,96.045C87.477,89.801 87.527,65.889 87.527,64.875C87.527,61.678 84.532,58.875 81.086,58.875ZM37.965,33.375C37.965,27.585 42.676,22.875 48.465,22.875C49.013,22.875 49.59,22.928 50.229,23.036C50.911,23.151 51.577,22.79 51.853,22.161C53.53,18.343 57.303,15.875 61.465,15.875C67.254,15.875 71.965,20.585 71.965,26.375C71.965,29.692 70.411,32.644 68,34.566L68,26.875C68,22.885 64.974,19.875 61.251,19.875C57.457,19.875 54.265,22.95 54.265,26.842L54.219,28.939C52.972,27.057 50.914,25.876 48.496,25.876C44.503,25.876 41.492,29.101 41.492,33.408L41.662,41.347C39.404,39.421 37.965,36.567 37.965,33.375ZM81.658,94.703C78.602,100.816 75.183,105.875 64.242,105.875C53.306,105.875 46.283,102.014 40,92.545C36.339,87.029 34.75,75.629 40.593,70.318C41.224,69.744 41.781,69.297 42.253,68.947L42.477,79.41C42.495,80.238 43.203,80.89 44.009,80.883C44.837,80.863 45.495,80.186 45.478,79.358L44.737,44.704L44.704,43.166L44.495,33.406C44.495,30.757 46.143,28.937 48.501,28.937C50.859,28.937 52.508,30.85 52.509,33.553L52.844,42.913L52.958,46.102L53.516,61.677C53.545,62.486 53.839,63.374 55.038,63.374C56.237,63.374 56.537,62.468 56.556,61.657L57.376,26.873C57.376,24.593 59.105,22.873 61.252,22.873C63.677,22.873 65.001,24.946 65.001,26.873L65.001,59.873C65.001,60.701 65.508,61.373 66.336,61.373C67.164,61.373 67.671,60.701 67.671,59.873C67.671,57.667 69.575,55.873 71.781,55.873C73.987,55.873 76.001,57.667 76.001,59.873L76.001,66.373C76.001,67.201 76.673,67.873 77.501,67.873C78.329,67.873 79.001,67.201 79.001,66.373L79.001,62.553C79.001,62.26 80.549,61.873 81.252,61.873C83.035,61.873 84.501,63.33 84.501,64.873C84.5,71.59 83.989,90.041 81.658,94.703Z" style="fill:white;fill-rule:nonzero;stroke:white;stroke-width:1px;"/>
</svg>
